<svg xmlns="http://www.w3.org/2000/svg" width="10.255" height="18" viewBox="0 0 10.255 18">
  <path id="arrow" d="M-3091.54-1818.628a1.444,1.444,0,0,1,.48-.812,1.251,1.251,0,0,1,1.547-.008,2.977,2.977,0,0,1,.25.224q3.283,3.281,6.563,6.563a1.362,1.362,0,0,0,.211.2.8.8,0,0,1,.105-.184q3.31-3.315,6.622-6.627a1.277,1.277,0,0,1,1.376-.37,1.256,1.256,0,0,1,.6,1.931,2.276,2.276,0,0,1-.186.211l-7.61,7.6a1.253,1.253,0,0,1-1.6.256,1.836,1.836,0,0,1-.35-.289q-3.706-3.7-7.411-7.4a1.879,1.879,0,0,1-.6-.948Z" transform="translate(-1809.456 3091.54) rotate(90)" fill="#d4d4d4"/>
</svg>
