<svg width="19" height="18" fill="none" xmlns="http://www.w3.org/2000/svg"><g clip-path="url(#a)" fill="#fff"><path d="M6.65 0h5.7l1.33.07c.77.05 1.53.17 2.25.48a4.72 4.72 0 0 1 2.96 3.83c.05.3.07.62.11.93v7.25l-.03.24c-.05.4-.07.8-.16 1.18a4.7 4.7 0 0 1-3.15 3.6c-.84.3-1.72.38-2.61.4-2.02.01-4.03.03-6.05.02-.99 0-1.98-.01-2.95-.23a4.84 4.84 0 0 1-3.45-2.6 6.12 6.12 0 0 1-.57-2.72C.01 10.5 0 8.55.01 6.6c0-.82.06-1.64.18-2.45.2-1.26.84-2.3 1.93-3.08a6 6 0 0 1 3.16-1C5.74.03 6.19.01 6.65 0Zm2.87 16.42v-.03c.5 0 1 .02 1.5 0 1.08-.03 2.17-.02 3.24-.15 1.46-.17 2.45-.97 2.81-2.35.15-.55.2-1.14.2-1.72.04-1.81.05-3.62.04-5.43 0-.74-.05-1.47-.14-2.2-.2-1.44-1.15-2.42-2.66-2.7-.65-.13-1.33-.17-2-.18-1.66-.02-3.33-.02-5-.01-.95 0-1.9-.01-2.85.15-1.45.24-2.44 1.1-2.73 2.46a9.5 9.5 0 0 0-.18 1.8 125.6 125.6 0 0 0-.03 4.33c.01 1.01.04 2.04.14 3.05.1.99.6 1.8 1.52 2.34.62.37 1.31.51 2.03.54l4.11.1Z"/><path d="M4.62 9c0-2.55 2.2-4.63 4.9-4.62 2.71.01 4.9 2.1 4.88 4.64a4.77 4.77 0 0 1-4.89 4.61c-2.7 0-4.9-2.08-4.89-4.63Zm1.72 0a2.85 2.85 0 0 0 .93 2.12A3.18 3.18 0 0 0 9.5 12a3.32 3.32 0 0 0 2.24-.86 2.98 2.98 0 0 0 .93-2.12 2.85 2.85 0 0 0-.92-2.13A3.18 3.18 0 0 0 9.51 6a3.32 3.32 0 0 0-2.24.87A2.98 2.98 0 0 0 6.34 9ZM14.62 3.12a1.18 1.18 0 0 1 .8.33 1.06 1.06 0 0 1 .32.78 1.02 1.02 0 0 1-.36.75 1.14 1.14 0 0 1-.8.3 1.2 1.2 0 0 1-.8-.34 1.07 1.07 0 0 1-.32-.77 1.02 1.02 0 0 1 .35-.75 1.15 1.15 0 0 1 .81-.3Z"/></g><defs><clipPath id="a"><path fill="#fff" d="M0 0h19v18H0z"/></clipPath></defs></svg>