<svg width="32" height="32" fill="none" xmlns="http://www.w3.org/2000/svg"><path d="M9.05 32h10.13v-5.5c-1.55.44-3.53.73-4.52-.28-.78-.8-.37-2.15-.73-3.2-.27-.82-1.91-1.08-.43-2.28-1.6-1.74.4-1.87.22-2.71-.23-1.1-2.85-1.72-1.82-2.99l3-3.4c.16-.24.29-.42.5-.61.83.77 2.88.75 3.96.28-1.34-.25-2.46-.3-3.46-1.07-.61-.47-1.64-1.75-1.63-3.07.43.58 1.14 2.06 1.66 2.2.07-2.5-.29-4.88 1.43-7.24L18.6.53c-.29-.11-.56-.27-.85-.4h-8.7v10.22H0v11.43h9.05V32Z" fill="#fff"/><path fill-rule="evenodd" clip-rule="evenodd" d="M29.1 21.08c.53-.45 1.2-1.7 1.6-2.51.46-.94.82-2.06 1.07-3.2.6-2.73-.02-5.09-1.22-6.81a9.6 9.6 0 0 0-1.93-2.13c-2.3-1.85-4.34-3.22-5.98-6.43.57 2.76 2.84 5.42 4.75 6.81 2.52 1.84 4.1 4.22 3.53 8.16-.34 2.32-1.68 5.26-1.81 6.11Z" fill="#fff"/><path fill-rule="evenodd" clip-rule="evenodd" d="M27.2 19.48c.07-.24.3-.72.41-1 1-2.56 1.07-6-.89-7.8-1.8-1.64-2.69-2.27-3.98-4.3-.2-.32-.88-1.53-.96-1.86-.07 1.6 1.71 3.96 2.7 5.11 1.9 2.17 3.45 3.04 3.1 7.52-.08.86-.3 1.59-.38 2.33Z" fill="#fff"/></svg>