<svg width="282" height="285" fill="none" xmlns="http://www.w3.org/2000/svg"><g clip-path="url(#a)"><path d="M178.86 62.55c1.98-1.13 3.47-2.85 5.14-4.34 5-4.47 10.25-8.42 17.06-9.8 7-1.4 15.14 2.6 17.79 9-1.54-.84-3.07-1.64-4.84-1.88-3.79-.5-7.38.26-10.84 1.66-9.24 3.75-16.41 10.02-21.92 18.24-6.98 10.36-9.51 21.72-7.36 34.06.13.77.08 1.92 1.37 1.63 1.13-.26.69-1.23.56-1.95-.76-3.95-.92-8-.5-12 1.76-14.87 9.38-26.11 21.5-34.46 4.61-3.17 9.64-5.38 15.39-5.32 4.93.05 7.68 2.65 8.07 7.55.4 5.1.93 10.19 2.03 15.2 2.76 12.51 8.88 22.42 21.24 27.52a8.16 8.16 0 0 1 3.82 3.18c-.22.3-.4.65-.5 1.01a17.38 17.38 0 0 1-4.91 10.51c-.43.46-1.03.85-.88 1.63-2.87 1.22-5.9 1.35-8.95 1.3-6.59-.12-12.7-2.28-18.8-4.45-5.56-1.98-11.13-3.89-17.1-4.2-5.08-.27-9.48 1.13-12.8 5.13-2.94 3.56-1.47 7.88 3.03 8.98.5.12 1.02.19 1.53.3l34.1 6.81c-.29.34-.62.65-.97.93a62.06 62.06 0 0 1-16.77 7.9c-6.5 1.84-13.08 2.35-19.78.98-3.81-.77-7.11-2.65-10.52-4.32a2.72 2.72 0 0 1-.35-.46 67.92 67.92 0 0 1-6.84-32.16c.45-16.92 6.3-32.55 12-48.18Z" fill="#FD93AE"/><path d="m222.08 137.86-34.1-6.82c-.52-.1-1.03-.18-1.54-.3-4.5-1.09-5.97-5.42-3.03-8.97 3.33-4.02 7.72-5.43 12.8-5.14 5.96.33 11.53 2.25 17.1 4.2 6.1 2.18 12.22 4.34 18.8 4.45 3.05.05 6.09-.08 8.96-1.3 1.78-.3 3.24-1.24 4.6-2.34 3.63-2.95 4.27-7.32 1.68-10.8a8.16 8.16 0 0 0-3.82-3.19c-12.37-5.11-18.5-15.02-21.23-27.52-1.1-5.01-1.64-10.1-2.04-15.2-.38-4.9-3.13-7.5-8.06-7.55-5.74-.05-10.78 2.17-15.38 5.33-12.13 8.35-19.75 19.6-21.5 34.45-.43 4-.26 8.05.5 12.01.13.72.56 1.69-.57 1.95-1.28.29-1.24-.86-1.37-1.64-2.14-12.33.39-23.7 7.37-34.05 5.5-8.22 12.68-14.5 21.91-18.24 3.47-1.4 7.06-2.16 10.84-1.66 1.77.24 3.3 1.03 4.85 1.87 2.52 2.44 3.61 5.5 3.75 8.95l.05.63.04.48c-.07 3.9.58 7.7 1.34 11.5 1.68 8.15 4.91 15.52 11.15 21.27 3.2 2.98 7.18 4.77 11.09 6.62 1 1.08 2.26 1.9 3.06 3.19 3.14 5.1 1.38 11.19-4.14 14.37-2.44 1.4-5.1 2.1-7.82 2.68-1.48.06-2.97.15-4.46.17-6.66.07-12.9-1.97-19.07-4.14-5.98-2.11-11.94-4.38-18.41-4.53-3.89-.09-7.28 1.08-10.02 3.9-1.09 1.13-1.9 2.36-1.4 4.02.5 1.67 1.93 2.14 3.44 2.43l10.5 2.01 27.84 5.47c6.93 1.4 13.87 2.6 20.98 1.7a34.77 34.77 0 0 0 8.58-2.36c.82-.3 1.77-1.37 2.6-.3.68.88-.25 1.7-.7 2.42-7.82 12.6-19.14 20.38-33.38 23.93-11.91 2.98-23.66 2.51-34.98-2.7a36.6 36.6 0 0 1-18.74-18.86c-.16-.35-.36-.69-.53-1.03l-.3-.62.02-.11-.1-.06c-.15-.63-.3-1.25-.47-1.86-1.8-6.43-3.48-12.86-3.88-19.58-.67-11.47 1.5-22.55 4.73-33.45 1.39-4.7 2.92-9.35 4.38-14.02 1.77-4 3-8.19 4.58-12.7a39.76 39.76 0 0 0-11.47 6.37c-12.2 9.51-17.54 22.7-19.45 37.47-2.22 17.15 2.79 32.44 13.19 46.05 6.18 8.1 13.59 14.78 22.91 19.13.53.24 1.07.46 1.62.67 2.77 1.08 2.85 1.48.64 3.38-2.38 2.05-5.24 3.02-8.25 3.62-6.92.49-11.91-2.57-15.52-8.3-2.46-3.88-3.9-8.2-5.11-12.54-1.14-4.1-3.7-6.35-7.6-7.43-.88-.24-1.74-.54-2.6-.81-3.27-.99-6.53-2-9.03-5.04-1.01 5.16-1.41 9.92 1.25 14.4 2.41 4.07 6.02 5.27 10.18 3.47.55-.24 1.1-.5 1.59.08.53.63.17 1.22-.17 1.78a97.73 97.73 0 0 1-5.87 8.9c-8.77 11.91-19.68 21.44-32.34 29a288.03 288.03 0 0 1-19.3 10.45c-1.42.7-2.08 1.54-2.25 3.19-.81 7.7-3.17 14.81-8.65 20.58a16.01 16.01 0 0 1-7.3 4.6c-4.97 1.39-8.41-1.43-8.06-6.58.25-3.57 1.82-6.56 4.17-9.22 4.59-5.2 10.5-8.6 16.51-11.77 1.38-.73 1.74-1.58 1.74-3.02.08-7.97-1.87-15.54-4.41-23-2.19-6.45-4.55-12.85-5.47-19.64a44.3 44.3 0 0 1 .94-17.19c.32-1.2.16-1.88-.94-2.71-6.98-5.22-9.13-13.13-6-21.3.85-2.2 2.02-4.2 3.08-6.28l.18-.48.08-.03a.18.18 0 0 0 .09-.14c0-.03 0-.06-.02-.09 1.25-1.17 1.91-2.75 2.76-4.17 2.14-3.6 4.3-7.19 4.52-11.56.33-.35.64-.73.96-1.1.92.17 1.18.92 1.58 1.58.73 1.22 1.44 2.45 2.25 3.61 2.83 4.1 6.45 7.6 9.02 11.9 2.74 4.62 4.16 9.5 2.72 14.84-1.86 6.97-7.87 10.12-14.62 7.69-.95-.35-.95.16-1.1.72-.45 1.14-.87 2.29-1.37 3.4-.5 1.12-.26 1.67.92 2.2a17.6 17.6 0 0 0 15.31-.28c4.65-2.06 7.96-5.62 10.88-9.65 6.44-8.87 8.48-18.45 4.78-29-2.26-6.44-5.61-12.33-9.4-18-1.11-1.8-2.2-3.64-3.36-5.43a13.68 13.68 0 0 1-2.37-6.9c-.04-1.2-.4-1.33-1.37-.66-9.1 6.26-18.03 12.71-24.86 21.58-5.75 7.43-8.96 15.71-8.16 25.28.06.74.56 1.92-.76 2-1.32.09-1.13-1.17-1.2-2.01-.88-10.5 2.82-19.45 9.32-27.44 7-8.6 15.84-15.07 24.89-21.27.85-.59 1.7-1.18 2.57-1.74.44-.28.92-.54 1.44-.15.42.32.43.76.32 1.23-.85 3.78.4 7 2.5 10.05 1.4 2.02 2.69 4.1 4 6.18 2.38 4.19 4.92 8.33 6.81 12.82 3.87 9.16 4.96 18.36.52 27.67a48.56 48.56 0 0 1-9.34 13.05c-3.03 2.36-6.17 4.5-9.95 5.51a18.99 18.99 0 0 1-12.93-.93c-1.6-.72-1.78-.13-2.08 1.16-1.94 8.47-1.08 16.75 1.42 24.96 1.97 6.5 4.55 12.84 6.1 19.47a54.12 54.12 0 0 1 1.7 13.28c-.03 1.8.54 1.75 1.89 1.05 10.96-5.73 21.9-11.52 31.63-19.25a93.3 93.3 0 0 0 18.35-19.18c.13-.22.24-.45.32-.7l4.16-5.87c-4.75.12-8.06-1.64-10.34-5.45-1.72-2.9-2.33-6-2.31-9.29.02-4.17 1.19-8.19 1.67-12.28a2 2 0 0 1 1.78-.47c.13.3.2.61.23.93-.27 4.36 2.34 6.49 6 7.76 1.9.66 3.83 1.24 5.75 1.8 4.36 1.28 7.3 3.87 8.56 8.42a53.9 53.9 0 0 0 4.4 11.4c3.2 5.92 8.33 8.87 14.18 8.15 2.68-.02 4.87-1.23 7.19-2.9-3.43-1.2-6.15-3.11-9.1-4.63-2.09-1.62-4.24-3.17-6.25-4.88-5.39-4.6-9.84-10.02-13.78-15.88-4.4-7.24-7.91-14.86-9.4-23.26-3.12-17.67.27-34.05 10.54-48.75 5.39-7.72 12.81-13.1 21.7-16.32.76-.27 1.63-.94 2.35-.18.72.77.04 1.6-.2 2.37-.6 1.91-1.24 3.8-1.87 5.71-5.7 15.64-11.55 31.27-12.02 48.19a67.93 67.93 0 0 0 6.85 32.16c.1.16.21.31.34.45 5.12 8.7 12.84 14.07 22.41 16.5 18.23 4.6 34.64.47 49.22-11.23a38.75 38.75 0 0 0 8.94-10.31c-.88.25-1.42.38-1.95.55a35.78 35.78 0 0 1-11.5 1.54c-6.42-.16-12.7-1.52-19.02-2.57Zm-138.76-1.62c.2-.25.38-.52.53-.8.56-1.58 1.3-2.04 2.56-.56a4.06 4.06 0 0 0 2.9 1.38c3.5.26 6.21-1.23 8.06-4.08 2.8-4.32 2.4-8.88.55-13.4-2.7-6.52-8.21-11.02-12.1-17.15-1.2 4.3-3.26 7.73-5.35 11.14-1.55 2.53-3.24 4.96-4.34 7.77a12.65 12.65 0 0 0-1.47 3.75 15.64 15.64 0 0 0 5.67 16.54c.82.63 1.24.75 1.57-.4.4-1.42.94-2.8 1.42-4.19Zm5.94 73.4c-5.12 2.68-9.8 5.29-13.8 8.89-3.14 2.8-5.8 6.01-6.4 10.36-.6 4.35 2.07 6.4 6.18 4.91a7 7 0 0 0 1.23-.57c8.72-5.33 11.3-13.95 12.79-23.6Z" fill="#3C424E"/><path d="M106.15 86.55c3.8 5.66 7.14 11.56 9.4 18 3.7 10.55 1.65 20.13-4.78 29-2.92 4.03-6.23 7.59-10.88 9.65-.55-.62-1.28-.46-1.98-.48a20.52 20.52 0 0 1-12.87-4.84c.14-.56.13-1.06 1.08-.72 6.75 2.44 12.76-.71 14.63-7.69 1.43-5.35.02-10.22-2.72-14.84-2.56-4.31-6.19-7.8-9.02-11.9-.8-1.16-1.5-2.39-2.25-3.61-.4-.66-.68-1.42-1.58-1.57.94-2.07 2.9-3.16 4.56-4.47a30.8 30.8 0 0 1 16.41-6.53Z" fill="#FD93AE"/><path d="M144.93 168.02a97.94 97.94 0 0 0 5.87-8.9c.33-.57.7-1.16.16-1.79-.48-.57-1.03-.32-1.59-.08-4.16 1.8-7.76.6-10.18-3.47-2.66-4.48-2.26-9.24-1.25-14.4 2.5 3.04 5.76 4.06 9.03 5.04.87.27 1.72.58 2.6.81 3.9 1.08 6.47 3.34 7.6 7.44 1.2 4.34 2.66 8.65 5.11 12.53 3.61 5.73 8.6 8.8 15.52 8.3-.7 2.06-1.17 4.17-2.31 6.1-3.8 6.43-10.66 6.23-15.67 3.37-3.95-2.25-6.87-5.52-9.77-8.93-1.73-2-3.24-4.16-5.12-6.02Z" fill="#58CD20"/><path d="m225.8 136.4-27.83-5.46-10.5-2.01c-1.51-.3-2.93-.76-3.44-2.43-.52-1.66.31-2.9 1.4-4.02 2.73-2.82 6.13-4 10.02-3.9 6.46.16 12.42 2.42 18.4 4.53 6.17 2.18 12.4 4.22 19.07 4.15 1.49-.02 2.98-.11 4.46-.17-2.4 2.67-5.6 4.31-8.33 6.55-1.1.9-2.74 1.18-3.25 2.77ZM174.03 69.51c-1.46 4.68-3 9.33-4.38 14.02-3.23 10.92-5.4 21.98-4.73 33.46.4 6.71 2.08 13.15 3.88 19.57.17.62.32 1.24.47 1.86-3.6-3.01-5.4-7.16-7.08-11.38-2.43-6.1-3.28-12.49-3.13-19.01.18-8.16 2-16.2 5.34-23.65a73.6 73.6 0 0 1 7.52-13.03c.55-.75 1-1.7 2.11-1.84Z" fill="#FD93AE"/><path d="M155.72 143c3.94 5.85 8.4 11.28 13.78 15.87 2.01 1.7 4.16 3.26 6.25 4.88.9 2.44 1.9 4.87 1.9 7.54-5.85.72-10.98-2.22-14.19-8.14a53.96 53.96 0 0 1-4.4-11.4c-1.26-4.56-4.2-7.15-8.55-8.43-1.92-.56-3.85-1.13-5.75-1.8-3.66-1.27-6.27-3.4-6-7.75-.03-.33-.1-.64-.23-.94.4-.46.87-.41 1.42-.33a14.1 14.1 0 0 1 7.8 3.53l6.4 5.95c.45.43.8 1.04 1.56 1.01Z" fill="#58CD20"/><path d="M107.1 140.83a48.53 48.53 0 0 0 9.33-13.05c4.45-9.31 3.35-18.51-.51-27.67-1.9-4.49-4.42-8.63-6.8-12.85 2.2-.08 4.02 1.01 5.65 2.24 5.32 3.97 7.68 9.64 8.56 15.98 1.33 9.4-1.4 17.97-6.1 25.92-2.38 4.04-5.42 7.74-10.13 9.43ZM246.27 106.85c-3.91-1.85-7.88-3.66-11.1-6.61-6.24-5.75-9.47-13.12-11.15-21.26-.75-3.81-1.4-7.61-1.31-11.5 1.38 1.28 1.46 3.14 1.9 4.76 1.35 4.85 3.23 9.4 6.2 13.46 2.26 3.14 5.08 5.8 7.69 8.63 2.89 3.14 5.64 6.34 7.4 10.28.38.68.5 1.47.37 2.24ZM126.8 80.23c2-2.1 4.11-2.89 6.57-2.73a3.42 3.42 0 0 1 3.28 2.59c.92 3.23-.63 7.69-3.26 9.22-2.21 1.3-4.34 1.34-6.38.08-1.92-1.2-2.15-3.33-1.86-5.36.21-1.47.55-3.07 1.65-3.8Z" fill="#FD93AE"/><path d="M136.75 133.3c-.5 4.1-1.66 8.12-1.67 12.28-.02 3.29.59 6.4 2.31 9.28 2.27 3.82 5.6 5.58 10.34 5.46l-4.15 5.87c-5.4-5.87-10.83-11.72-11.97-20.11-.56-4.19-.78-8.31 2.7-11.57.69-.63 1.34-1.37 2.44-1.21Z" fill="#58CD20"/><path d="M143.83 56.22c-1.32 1.49-3.78 1.83-5.05.71-1.1-.97-.86-3.33.5-4.91 1.21-1.44 3.23-1.69 4.44-.56 1.22 1.13 1.25 3.46.1 4.76ZM84.2 98.65c-.2 4.36-2.37 7.97-4.51 11.55-.85 1.43-1.51 3-2.76 4.18-.89-1-.14-2.04.12-2.92 1.42-4.8 3.35-9.33 7.16-12.8ZM121 65.33c-1.26 1.4-3.08 1.49-4.43.24-1.05-.98-1.04-2.88 0-4 1.43-1.54 3.88-1.97 5.05-.89 1.17 1.09.86 3.03-.61 4.65ZM126.7 34.6c.9-1.05 1.87-1.56 2.9-.5 1 1.05.87 2.18-.12 3.26-.92 1-2.11 1.4-3.07.51-1.15-1.06-.72-2.35.29-3.27ZM130.34 44.4c-.6.47-1.46.78-1.99.06-.66-.87-.56-1.93.3-2.76.76-.73 1.43-.4 1.96.26.68.83.52 1.65-.27 2.45ZM131.34 93.1c.77-.75 1.6-1.08 2.3-.35a1.69 1.69 0 0 1 .02 2.29c-.63.66-1.53.97-2.39.16-.85-.8-.25-1.5.07-2.1ZM136.37 29.72c-.95-.95-.57-1.81-.02-2.54.55-.74 1.44-.88 2.04-.24a1.83 1.83 0 0 1-.01 2.48c-.6.72-1.37.55-2 .3Z" fill="#FD93AE"/><path d="m222.64 82.97-.05-.63a.47.47 0 0 1 .05.63ZM169.35 154.6l.3.62a.53.53 0 0 1-.29-.62ZM76.78 130.64l-.18.48.18-.48Z" fill="#00C9BD"/><path d="M76.12 120.53c1.09-2.79 2.79-5.23 4.34-7.77 2.1-3.4 4.15-6.84 5.36-11.14 3.88 6.13 9.4 10.63 12.1 17.16 1.85 4.52 2.23 9.08-.55 13.4-1.85 2.84-4.56 4.34-8.06 4.07a4.06 4.06 0 0 1-2.9-1.38c-1.26-1.48-2-1.01-2.57.56-.14.29-.32.56-.52.8-2.34-1.93-3.78-4.46-5.02-7.19-1.24-2.73-1.45-5.67-2.18-8.5Z" fill="#FD93AE"/></g><defs><clipPath id="a"><path fill="#fff" transform="rotate(42.93 79.43 202.02)" d="M0 0h167.03v233.25H0z"/></clipPath></defs></svg>