<svg width="22" height="22" fill="none" xmlns="http://www.w3.org/2000/svg"><path d="M22 3.74c-.04.49-.1.98-.13 1.47l-.37 5.18-.18 2.55c-.04.58-.25.77-.83.77H5.6c-.73 0-1.27.37-1.47 1a1.42 1.42 0 0 0 1.18 1.84l.38.02h14.85c.32 0 .58.08.72.39.15.32.02.62-.36.87a2.72 2.72 0 1 1-4.94 2.03 2.75 2.75 0 0 1 .32-1.99h-6.04c.34.64.48 1.3.31 2.01a2.66 2.66 0 0 1-1.16 1.67c-.98.65-2.23.6-3.16-.15-.53-.4-.88-.98-1-1.63-.11-.66 0-1.3.35-1.9-.23-.02-.44-.04-.64-.08a2.7 2.7 0 0 1-.37-5.2c.2-.07.23-.15.21-.32A1152.53 1152.53 0 0 1 4 3.03l-.15-1.74H.74C.36 1.29.1 1.1.02.78-.05.48.1.2.45.03.47.03.47.01.48 0H4.6c.35.14.5.4.51.76l.14 1.76c0 .18.05.24.24.24h6.72l.21-.02V1.35c.01-.37.3-.66.65-.66.36 0 .63.28.64.67V2.75h7.42c.4 0 .7.1.87.47v.52Zm-1.93 8.67.6-8.35h-6.94v3.98l.17-.16.77-.78c.28-.26.68-.26.93 0a.64.64 0 0 1-.01.9c-.68.7-1.36 1.38-2.05 2.06-.29.28-.66.27-.95-.02l-.71-.71-1.31-1.3c-.36-.37-.25-.91.2-1.08.27-.1.51-.04.71.17l.93.94v-4H5.38l.7 8.35h13.99ZM7.89 17.86a1.42 1.42 0 0 0-1.3 1.97 1.43 1.43 0 0 0 2.31.46 1.43 1.43 0 0 0 .31-1.55 1.43 1.43 0 0 0-1.32-.88Zm10.7 0a1.42 1.42 0 1 0 0 2.85 1.42 1.42 0 0 0 0-2.85Z" fill="#fff"/></svg>