<svg fill="#fff" width="22" height="22" xmlns="http://www.w3.org/2000/svg"><path d="M20.4 10.16c-.07-1-.14-2.84-.34-4.67a4.17 4.17 0 0 0-3.45-3.6c-1.02-.16-2.04-.28-3.07-.41-.47-.06-.75-.37-.71-.83.02-.4.36-.68.82-.64 1.3.14 2.64.2 3.9.6a5.6 5.6 0 0 1 3.92 4.4c.55 2.5.62 5.04.45 7.6a39.8 39.8 0 0 1-.42 4.03 5.76 5.76 0 0 1-4.68 4.66c-2.2.42-4.44.63-6.68.56-1.61-.04-3.2-.24-4.79-.52a6.24 6.24 0 0 1-3.06-1.35 5.45 5.45 0 0 1-1.85-3.51c-.35-2.4-.5-4.83-.42-7.26.05-1.57.2-3.13.6-4.65A5.8 5.8 0 0 1 5.37.37l3-.37c.36-.03.66.19.77.51a.7.7 0 0 1-.27.85c-.16.09-.34.14-.52.16-.99.13-1.98.22-2.96.37a4.31 4.31 0 0 0-3.5 3.65 40.64 40.64 0 0 0 .03 10.98 4.21 4.21 0 0 0 3.44 3.32c2.24.4 4.49.6 6.76.5a27.3 27.3 0 0 0 4.62-.55 4.3 4.3 0 0 0 3.29-3.57c.26-1.73.34-3.47.36-6.06Z"/><path d="M10.2 12.87V4.11c0-.47.31-.8.74-.8a.74.74 0 0 1 .73.67v8.89l.76-.6 2.34-1.9c.43-.34.98-.2 1.17.3.12.31.03.6-.26.85a967.33 967.33 0 0 1-4.26 3.45.76.76 0 0 1-1 0 1936.8 1936.8 0 0 1-4.25-3.48c-.36-.3-.39-.75-.07-1.08.27-.28.67-.3 1-.05l2.81 2.28.3.23Z"/></svg>
