<svg width="331" height="330" fill="none" xmlns="http://www.w3.org/2000/svg"><g clip-path="url(#a)"><path d="M80.75 114.41c1.8-1.91 4.77-2.6 5.7-5.43.95-.3 2.35.6 2.85-.87.4-1.15-.74-1.34-1.44-1.76.68-2.3.7-4.73.08-7.04-1.72-7.06-1.87-14.03 1.4-20.69 3.25-6.56 7.66-10.78 15-10.4 5.98.3 10.06 4.14 13.39 8.84 3.36 4.78 4.59 10.4 6.33 15.84 1.31 4.13 2.1 8.5 4.83 12.08-.1.8-.2 1.57-.36 2.32-1.74 8.57-3.6 17.12-3.4 25.95.08 3.29.44 6.55 2.15 9.44 1.47 2.45 3.57 4.22 6.58 4.03 2.73-.18 3.7-2.48 4.59-4.63.4-1.03.74-2.09.99-3.17.92-3.72 1.22-7.53 1.5-11.33.47-6.6.08-13.19.2-19.77.24-.03.55.03.7-.1 3.3-2.68 5.99-5.81 7.26-9.99 1.01-3.32 1.93-6.68 3.12-9.94 2.19-6 5.93-10.5 12.68-11.37 6.63-.85 12.3 1.46 17.18 5.91 1.04 5.2 3.22 9.83 7.05 13.58.32 3.23.9 6.46.9 9.68a68.28 68.28 0 0 1-6.22 28.55c-.4.87-1.39 1.67-.56 2.8-.04.46-.16.85-.77.73l-.28.85c-1.42 2.93-3.38 5.5-5.27 8.12-1.08 1.49-1.67 3.38-3.45 4.31-3.58 3.35-6.7 7.14-10.6 10.2a72.95 72.95 0 0 1-39.71 15.72c-.38-.77-.81-1.53-1.15-2.33-3.4-8.25-6.6-16.57-10.39-24.66-6.96-14.72-15.4-28.14-30.88-35.47Z" fill="#FD93AE"/><path d="M173.33 151.08c1.77-.93 2.37-2.83 3.45-4.31 1.89-2.61 3.87-5.18 5.27-8.11.27-.23.56-.45.28-.86.6.13.72-.27.77-.74.98-1.52 2.01-3 2.92-4.57 3.53-6.11 6.8-12.36 8.38-19.33 1.51-6.74.17-12.6-5.41-17.13-3.81-3.77-6-8.39-7.05-13.58-.54-5.13-.88-10.33-2.5-15.27-2.31-6.93-7.54-10.31-14.73-9.27-10.7 1.54-17.71 7.72-21.11 17.89-3.5 10.46-3.2 21.29-2.55 32.12-.13 6.58.26 13.18-.21 19.77-.33 4.59-.7 9.18-2.15 13.61-.1.3-.21.6-.34.9-.9 2.15-1.86 4.44-4.59 4.62-3.01.2-5.11-1.58-6.58-4.03-1.72-2.88-2.1-6.14-2.14-9.44-.2-8.83 1.65-17.38 3.4-25.95.15-.77.24-1.55.35-2.32 2.77-10.71 5.17-21.48 4.33-32.69-.34-4.54-.94-9.03-2.84-13.24-3.18-7.12-9.2-8.8-15.5-4.33a39.65 39.65 0 0 0-3.3 2.7c-2.39 2.1-4.67 4.32-7.27 6.16-2.2 1.56-4.48 2.13-7.19 1.32a45.5 45.5 0 0 0-9.4-1.61c-6.81-.57-13.54-.4-19.91 2.42-6.85 3.05-10 9.1-8.6 16.5.95 5.1 3.54 9.37 7.11 13.01 5.95 6.06 12.87 10.35 21.57 11.11.7.43 1.84.62 1.45 1.77-.5 1.48-1.9.58-2.86.87a38.94 38.94 0 0 1-22.74-13.05 30.76 30.76 0 0 1-6.56-11.78c-2.53-8.92 2.51-18.23 11.24-21.27 9.46-3.3 19.14-2.91 28.75-.5 2.62.64 4.66.29 6.6-1.38 3.14-2.7 6.19-5.48 9.43-8.02 7.13-5.6 14.93-3.84 19.03 4.25 2.88 5.69 3.4 11.88 3.64 18.1.38 10.33-2.24 20.19-4.36 30.13-.22 1-.32 2.02-.47 3.04-2.19 8.8-3.8 17.69-3.31 26.84.09 1.67.45 3.32 1.07 4.88a6.73 6.73 0 0 0 3.02 3.58c1.69.92 3.07.62 3.96-1.18.85-1.8 1.41-3.73 1.67-5.7 1.4-9.32 1.46-18.68 1.02-28.07-.03-4.53-.13-9.06-.08-13.6.1-7.51.73-14.97 3.6-22C146.19 62.77 154 56.6 165.4 55.4c7.49-.8 13.17 2.89 16 9.89 1.38 3.34 1.85 6.9 2.33 10.46.32 2.37.7 4.73 1.05 7.1.65 4.33 2.5 8.1 5.8 10.97 7.34 6.44 8.36 14.23 5.48 23.03-3.34 10.26-9.03 19.25-14.95 28.09-5.44 8.13-11.25 15.98-18.44 22.7-9.7 9.06-20.82 15.32-34.04 17.5-1.74.3-2.27.74-.9 2.92a50.78 50.78 0 0 1 4.9 9.8c.8 2.25 1.78 2.34 3.46 1.85 9.2-2.66 18.59-4.26 28.21-4.33 15.55-.13 30.06 4 43.82 11.06 1.33.69 2.17 1 2.33-.96 1.05-12.96 5.9-24.84 10.39-36.82 3.5-9.38 7.12-18.73 9.06-28.6 1.83-9.3 2.04-18.51-1.6-27.49a40.87 40.87 0 0 0-5.13-8.88c-.5-.69-1.35-1.36-.57-2.3.77-.92 1.6-.27 2.37.08 14 6.64 25.06 16.68 32.65 30.18 14.82 26.34 14.84 53.12 1.65 80-4.16 8.48-8.6 16.84-13.01 25.2-.84 1.57-.65 2.7.29 4.12 3.87 5.9 6.97 12.17 8.63 19.06 1.2 4.95 1.63 9.9.02 14.85a12.15 12.15 0 0 1-2.1 3.96c-2.97 3.67-7.16 3.9-10.56.59a15.39 15.39 0 0 1-3.55-5.89c-3.31-8.99-2.24-17.86.6-26.69.4-1.28.7-2.64 1.4-3.78 1.8-2.92.9-5.14-1.13-7.6a103.17 103.17 0 0 0-26.03-23.04c-1.57-.96-2.08-.83-2.35 1.04-2.1 14.34-1.86 28.41 4.72 41.81.45.9 1.12 1.93.34 2.9-.72.91-1.8.38-2.7.22-3.87-.69-7.74-1.45-11.6-2.19-.35-.17-.7-.31-1.08-.43a108.89 108.89 0 0 1-37.94-18.47c-9.02-6.82-16.66-14.97-23.51-23.88-1.9-2.75-3.88-5.44-5.62-8.27-.95-1.6-1.9-1.85-3.64-1.3-9.42 3-18.64 6.76-28.63 7.74-.1.01-.17.23-.22.29l8.27 8.1c9.54 10.73 18 22.34 27.32 33.25 9.31 10.9 19.64 20.72 32.49 27.45 5.41 2.85 11.06 5.22 17.3 5.6 8.36 1.66 17 .81 24.87-2.42.44-.18.86-.42 1.3-.6.66-.26 1.28-.2 1.64.49.43.8.03 1.37-.69 1.73-.7.38-1.42.7-2.16.99-14.87 5.47-29.17 3.48-43.17-3.26-1.7-.83-3.39-1.74-5.08-2.6-4.82-3.4-9.65-6.74-14.06-10.69-9.97-8.93-18.3-19.3-26.6-29.73-4.6-5.8-8.99-11.8-14.28-17.02-3.27-4.38-7.48-7.78-11.62-11.27-.7-.59-1.87-.95-1.49-2.16.39-1.21 1.55-.82 2.45-.74 4.02.34 7.93-.33 11.8-1.3 6.72-1.66 13.2-4.1 19.8-6.1a1.45 1.45 0 0 0 .9-2.14 528.8 528.8 0 0 1-6.07-12.23c-.42-.87-.8-1.4-1.92-1.33-18.93 1.27-36.28-4.53-53.16-12.26-8.62-3.95-17.03-8.33-24.6-14.13-3.08-2.34-5.88-4.9-8-8.18a12.2 12.2 0 0 1 .87-14.27c1.1-1.35 2.32-2.6 3.65-3.72 2.42-2.04 3.48-4.6 3.67-7.7.12-2.15.35-4.28.7-6.4.82-4.67 3.68-7.42 8.28-8.4 3.3-.71 6.64-.6 9.97-.25 5.7.6 11.3 1.91 16.67 3.93 15.47 7.33 23.91 20.75 30.83 35.5 3.8 8.07 6.99 16.4 10.39 24.65.33.8.76 1.56 1.14 2.33.3.9.54 1.82.9 2.69 1.45 3.5 1.46 3.5 5.13 2.82 15.1-2.8 27.07-10.87 37.15-22.09 2.62-2.93 5.47-5.7 7.14-9.35Zm-66.95 31.45a1.44 1.44 0 0 0 1.42.2c1.75.43 3.56.6 5.35.48.73.33 1.56.36 2.31.1 1.16.23 2.35.23 3.5 0 .76.27 1.58.24 2.3-.07l.01-.14.02.14c.45.17.93.25 1.25-.2.26-.35.06-.74-.27-1l-.23-.65a6 6 0 0 0-1.17-2.71l-.64-1.44c-5.17-13.43-10.24-26.9-17.78-39.26-4.61-7.57-10.28-14.2-18.02-18.76-8.68-5.11-18.2-6.75-28.1-6.4-4.68.15-7.5 2.75-8.22 7.4-.52 3.33-.8 6.69-1.19 10.03-.46 1.7-1.84 2.7-2.95 3.88-1.96 2.1-4.3 3.81-5.56 6.47a2.38 2.38 0 0 0-.76 1.93 5.06 5.06 0 0 0-.05 4.06 4.9 4.9 0 0 0 1.46 3.37 8.1 8.1 0 0 0 2.43 3.04c.4.92 1.13 1.64 2.05 2.01a11.72 11.72 0 0 0 3.35 2.75 7.24 7.24 0 0 0 3.17 2.24l.8.58a1.4 1.4 0 0 0 1.26.77l.8.55a.79.79 0 0 0 .88.48c.6.59 1.32 1.03 2.11 1.3a7.32 7.32 0 0 0 3.01 1.66c.94.73 1.99 1.3 3.11 1.67 1.2.92 2.57 1.6 4.03 1.99l1.4.7c1.34.96 2.84 1.67 4.44 2.1l1.03.5c.66.54 1.47.89 2.32.97.8.35 1.61.7 2.42 1.03.66.56 1.48.9 2.33.96.6.44 1.3.7 2.03.78a7.4 7.4 0 0 0 3.39 1.23l1.05.36c.56.47 1.27.7 2 .66.61.4 1.32.64 2.06.68 1.13.61 2.38.96 3.66 1.02 1.14.6 2.4.93 3.7.96.8.48 1.75.69 2.69.59l.02.02c1.04.5 2.2.72 3.36.62l.67.11a1.93 1.93 0 0 0 1.7.26l.05-.02Zm38.07 32.2a105.09 105.09 0 0 0 35.33 29.78c6.27 3.28 12.74 6.15 19.69 7.73 3.71 1.72 7.75 2.25 11.7 3.1.65.13 1.54.66 1.97-.09.21-.4-.17-1.2-.41-1.78-2.42-6-3.95-12.3-4.57-18.74-.72-7.66-.06-15.26 1.17-22.81.19-1.15.34-2.06-1.03-2.76-13.36-6.89-27.32-11.4-42.48-11.5-9.8-.06-19.33 1.6-28.72 4.21-.75.21-2.03.24-1.13 1.63 2.6 3.93 5.18 7.85 8.48 11.22Zm99.26 21.63 7.34-14.06c4.6-8.8 9.72-17.4 12.19-27.1 7.99-31.49 1.2-58.91-23.18-81.29-2.97-2.72-6.13-5.33-10.03-6.74-.42-.16-.7-1.14-1.33-.34-.37.5.15.93.32 1.26 5.84 11.06 5.55 22.62 2.95 34.36-1.86 8.4-4.87 16.44-7.84 24.5-4.75 12.88-10.1 25.58-11.43 39.49-.17 1.75.26 2.55 1.69 3.39a98.15 98.15 0 0 1 17.52 13.23c4.3 4.1 8.25 8.54 11.8 13.3Zm.07 40.65c2.8 2.88 5.9 2.67 7.95-.35 1.97-2.9 2.3-6.23 2.11-9.62-.47-8.85-4.17-16.58-8.65-24-.54-.9-1.08-1.25-1.57 0-3.36 8.57-5.53 17.29-3.17 26.55.7 2.78 1.62 5.5 3.33 7.42Z" fill="#3C424E"/><path d="M139.77 213.34c6.88 8.93 14.51 17.09 23.53 23.9a108.88 108.88 0 0 0 37.95 18.47c.36.12.72.27 1.06.44 3.15 4.04 5.87 8.32 7.04 13.38 1.06 4.6-.65 8.32-4.75 10.63-4.28 2.42-8.98 3.46-13.8 4.19-1.38.2-3.38-.47-3.76 1.88-6.23-.4-11.88-2.77-17.3-5.6-12.84-6.73-23.16-16.53-32.49-27.45-9.33-10.93-17.77-22.53-27.31-33.25 1.06-.82 1.45-2.17 2.58-3.03 3.98-3.16 8.57-4.17 13.5-4.4 4.63-.25 9.17.56 13.75.84Z" fill="#58CD20"/><path d="M108.86 223.07c5.3 5.23 9.68 11.22 14.29 17.02 8.3 10.42 16.62 20.8 26.6 29.73 4.4 3.94 9.23 7.3 14.05 10.68-3.18-.17-5.8-1.96-8.44-3.44-7.44-4.14-14.1-9.3-20.45-15.03-6.22-5.6-11.63-11.91-17.31-17.98-2.9-3.1-5.59-6.5-7.39-10.44-1.55-3.39-2.57-6.82-1.35-10.54Z" fill="#58CD20"/><path d="M138.4 108.83c.44 9.39.4 18.76-1.02 28.07-.26 1.97-.82 3.9-1.67 5.7-.9 1.8-2.27 2.1-3.96 1.18a6.73 6.73 0 0 1-3.02-3.58c-.62-1.56-.98-3.2-1.07-4.88-.5-9.16 1.12-18.03 3.31-26.84.88-.56 1.44.25 2.13.5 1.82.67 3.6 1.46 5.3-.15Z" fill="#FD93AE"/><path d="M271.58 208.14c-2.02-2.04-2.28-4.51-.58-6.09 1.46-1.37 4.5-.86 6.43 1.09 1.7 1.72 1.79 3.64.19 5.23-1.86 1.86-4.02 1.75-6.04-.23ZM298.03 184.6c1 1.1 1.45 2.63.2 3.86a3 3 0 0 1-4.32-.02c-1.08-1.07-2.1-2.52-.77-4.17.94-1.15 3.43-1.03 4.9.33ZM288.33 187.75c.95.84 1.15 1.73.12 2.62-1.1.98-2.15.79-3.15-.2-.82-.8-1.4-1.86-.43-2.67a2.37 2.37 0 0 1 2.71-.35c.3.15.55.35.75.6ZM308.13 198.41c-1.12 1.15-2.26 1.04-3.06.13-.8-.91-1.42-2.05-.1-3.1 1.19-.96 2.29-.42 3.14.45.81.83.94 1.84.02 2.52ZM182.45 137.7c.27.4-.03.65-.28.86l.28-.85ZM240.94 178.07l-.68-.66c-3.35-2.75-9.2-2.14-10.96 1.08a6.37 6.37 0 0 0 .6 7.37c1.95 2.53 4.78 3.34 7.86 2.86 2.24-.34 4.51-.84 5.17-3.46a7.07 7.07 0 0 0-1.99-7.19Zm20.48-.64c-1.76-1.72-4.03-1.94-5.5-.5-1.36 1.35-1.43 4.46-.1 5.68 1.75 1.6 5.23 1.95 6.57.68 1.44-1.34 1-3.9-.98-5.86Zm-36.97 4.48c-.94-.62-1.98-1.46-3.1-.45-1 .87-.82 1.98.09 2.89a2.35 2.35 0 0 0 3.2.3c.97-.74.6-1.8-.2-2.73Z" fill="#00C9BD"/><path d="M46.9 130.24c.38-3.34.66-6.7 1.18-10.02.71-4.65 3.54-7.26 8.23-7.42 9.89-.33 19.41 1.3 28.1 6.4 7.73 4.57 13.4 11.2 18.02 18.77 7.53 12.35 12.6 25.83 17.77 39.26-1.3 1.11-2.76.18-4.12.2-11.9.15-23.04-3.12-33.58-8.45a97.2 97.2 0 0 1-25.34-18.67c-4.7-4.77-8-10.2-8.75-16.98-.13-1.17-.34-2.4-1.51-3.1Z" fill="#FD93AE"/><path d="M144.45 214.72c3.18.18 6.18 1.26 9.11 2.33 7.1 2.6 13.92 5.78 20.17 10.05 6.93 4.75 13.59 9.81 18.98 16.4 2.34 2.85 5.1 5.34 6.75 8.73-6.95-1.59-13.41-4.45-19.7-7.72a105.09 105.09 0 0 1-35.3-29.79Z" fill="#58CD20"/><path d="M240.94 194.08a7.1 7.1 0 0 1 2 7.18c-.66 2.62-2.94 3.14-5.18 3.47-3.12.45-5.9-.34-7.85-2.86a6.34 6.34 0 0 1-.6-7.37c1.76-3.22 7.6-3.85 10.95-1.1.24.21.45.45.68.68ZM261.41 193.43c2 1.95 2.4 4.5.97 5.85-1.34 1.28-4.82.92-6.56-.67-1.34-1.22-1.3-4.32.09-5.68 1.48-1.42 3.75-1.23 5.5.5ZM224.44 197.92c.8.92 1.17 1.99.2 2.73a2.34 2.34 0 0 1-3.2-.3c-.92-.9-1.09-2.02-.1-2.9 1.13-1 2.16-.15 3.1.47Z" fill="#00C9BD"/></g><defs><clipPath id="a"><path fill="#fff" transform="rotate(-45.6 154.67 65.02)" d="M0 0h182v285H0z"/></clipPath></defs></svg>