<svg width="169" height="64" fill="none" xmlns="http://www.w3.org/2000/svg"><path d="M75.25 1.95c0-.41.14-.76.42-1.04.29-.28.64-.43 1.05-.43.4 0 .76.15 1.04.43.29.28.43.63.43 1.04v25.8h12.04c.41 0 .76.14 1.05.42.28.28.42.63.42 1.04 0 .41-.14.76-.42 1.04-.29.28-.64.42-1.05.42H76.72c-.41 0-.76-.14-1.05-.42a1.41 1.41 0 0 1-.42-1.04V1.95Zm30.16-.38c.1-.25.27-.5.52-.73.25-.24.54-.36.85-.36.32 0 .6.11.86.34.25.22.44.47.57.75l11.7 27.07c.07.13.1.32.1.57 0 .38-.12.7-.38 1-.25.28-.6.42-1.04.42-.66 0-1.12-.3-1.37-.9l-3.8-8.65H100.1l-3.8 8.65a1.5 1.5 0 0 1-1.38.9c-.43 0-.79-.14-1.06-.43a1.4 1.4 0 0 1-.4-.99c0-.19.05-.38.14-.57l11.8-27.07Zm1.37 4.4-5.4 12.18h10.76l-5.36-12.18Zm16.89-4.02c0-.41.14-.76.42-1.04.29-.28.63-.43 1.05-.43h8.15c2.09 0 4.05.4 5.88 1.19a15.3 15.3 0 0 1 8.06 8.03c.8 1.82 1.19 3.78 1.19 5.86a15.16 15.16 0 0 1-15.13 15.12h-8.15c-.42 0-.76-.15-1.05-.43a1.41 1.41 0 0 1-.42-1.04V1.95Zm2.94 1.46v24.34h6.68c1.68 0 3.26-.33 4.74-.97a12.13 12.13 0 0 0 0-22.42 12.02 12.02 0 0 0-4.74-.95h-6.68Zm21.33-.61a1.19 1.19 0 0 1-.28-.8c0-.38.13-.72.4-1.02.27-.3.63-.45 1.07-.45.54 0 .95.2 1.23.62L158.33 13l7.97-11.85c.28-.41.7-.62 1.23-.62.41 0 .76.15 1.04.45a1.44 1.44 0 0 1 .2 1.82l-8.97 13.28V29.2c0 .4-.14.76-.43 1.04-.28.28-.63.42-1.04.42-.41 0-.76-.14-1.04-.42a1.41 1.41 0 0 1-.43-1.04V16.08L147.94 2.8ZM75.2 35.49a.6.6 0 0 1 .18-.45.6.6 0 0 1 .44-.18.6.6 0 0 1 .45.18.6.6 0 0 1 .18.45v3.38a3.73 3.73 0 0 1 2.37-.89 3.6 3.6 0 0 1 3.36 2.22c.18.44.28.91.28 1.41v5.5a.6.6 0 0 1-.18.45.6.6 0 0 1-.45.18.6.6 0 0 1-.44-.18.6.6 0 0 1-.18-.45v-5.5a2.47 2.47 0 0 0-1.47-2.18 2.37 2.37 0 0 0-1.83 0c-.29.13-.53.29-.75.49-.22.2-.38.44-.5.71-.13.28-.2.57-.2.88v5.6c0 .2-.07.34-.18.46a.62.62 0 0 1-.46.17.57.57 0 0 1-.43-.18.7.7 0 0 1-.2-.45V35.5Zm10.15 7.98a3.67 3.67 0 0 0 6.13 2 .6.6 0 0 1 .45-.19.6.6 0 0 1 .44.18.6.6 0 0 1 .18.44.6.6 0 0 1-.18.45c-.44.5-.95.85-1.5 1.06a5.52 5.52 0 0 1-3.83-.05 4.9 4.9 0 0 1-2.6-2.54 4.8 4.8 0 0 1-.38-1.94 4.75 4.75 0 0 1 1.4-3.41 5.35 5.35 0 0 1 3.5-1.48c.65 0 1.26.12 1.84.38a4.99 4.99 0 0 1 2.62 2.59c.27.58.4 1.21.4 1.88 0 .2-.06.36-.2.46a.67.67 0 0 1-.42.17h-7.85Zm7.16-1.25a3.61 3.61 0 0 0-2.31-2.73 3.46 3.46 0 0 0-2.53 0c-.4.15-.76.36-1.07.62-.32.26-.58.58-.8.94-.2.36-.35.75-.43 1.17h7.14Zm11.45 3.68c-.44.5-.98.93-1.6 1.28-.63.36-1.31.54-2.04.54a4.92 4.92 0 0 1-3.44-1.37 4.72 4.72 0 0 1-1.44-3.47 4.9 4.9 0 0 1 2.97-4.51 4.94 4.94 0 0 1 3.8 0 5.15 5.15 0 0 1 2.61 2.62c.26.59.4 1.22.4 1.9v4.24a.6.6 0 0 1-.19.45.6.6 0 0 1-.44.18.6.6 0 0 1-.45-.18.6.6 0 0 1-.18-.45V45.9Zm0-3.02a3.56 3.56 0 0 0-1.06-2.57 3.64 3.64 0 0 0-5.92 3.97 3.65 3.65 0 0 0 4.71 1.94 3.63 3.63 0 0 0 1.94-1.9c.2-.43.3-.91.33-1.44Zm3.12-7.4a.6.6 0 0 1 .18-.44.6.6 0 0 1 .44-.18.6.6 0 0 1 .45.18.6.6 0 0 1 .18.45V47.1a.6.6 0 0 1-.18.45.6.6 0 0 1-.45.18.6.6 0 0 1-.44-.18.6.6 0 0 1-.19-.45V35.5Zm4.73 0a.6.6 0 0 1 .18-.44.6.6 0 0 1 .45-.18.6.6 0 0 1 .44.18.6.6 0 0 1 .18.45v2.45h1.35c.18 0 .33.06.45.19a.6.6 0 0 1 .19.44.6.6 0 0 1-.19.44.61.61 0 0 1-.45.18h-1.35v7.92a.61.61 0 0 1-.61.63.62.62 0 0 1-.62-.62v-7.93h-1.35a.6.6 0 0 1-.45-.18.6.6 0 0 1-.18-.44.6.6 0 0 1 .18-.44.6.6 0 0 1 .44-.19h1.34V35.5Zm4.5 0a.6.6 0 0 1 .2-.44.6.6 0 0 1 .44-.18.6.6 0 0 1 .44.18.6.6 0 0 1 .18.45v3.38a3.73 3.73 0 0 1 2.37-.89 3.6 3.6 0 0 1 3.36 2.22c.19.44.28.91.28 1.41v5.5a.6.6 0 0 1-.18.45.6.6 0 0 1-.45.18.6.6 0 0 1-.44-.18.6.6 0 0 1-.18-.45v-5.5a2.46 2.46 0 0 0-1.47-2.18 2.37 2.37 0 0 0-1.83 0c-.28.13-.53.29-.75.49-.21.2-.38.44-.5.71-.13.28-.2.57-.2.88v5.6c0 .2-.06.34-.18.46a.61.61 0 0 1-.45.17.57.57 0 0 1-.44-.18.7.7 0 0 1-.2-.45V35.5Zm13.82 2.53c.54 0 1.03.08 1.46.24.43.16.8.34 1.11.55.31.2.55.42.72.63.17.2.25.36.25.47a.5.5 0 0 1-.18.38.6.6 0 0 1-.4.16.6.6 0 0 1-.45-.18 4.2 4.2 0 0 0-1.15-.71 3.57 3.57 0 0 0-2.8 0 3.67 3.67 0 0 0-1.93 1.94 3.56 3.56 0 0 0 0 2.81 3.64 3.64 0 0 0 5.88 1.18.64.64 0 0 1 .88-.01c.13.12.2.26.2.44 0 .1-.08.26-.24.47-.15.2-.39.41-.7.61a4.87 4.87 0 0 1-2.69.75 4.91 4.91 0 0 1-3.43-1.37 4.7 4.7 0 0 1-1.44-3.47 4.76 4.76 0 0 1 2.96-4.46c.6-.26 1.25-.4 1.95-.43Zm13.76 7.9c-.45.5-.98.92-1.6 1.27-.64.36-1.31.54-2.04.54a4.92 4.92 0 0 1-3.44-1.37 4.7 4.7 0 0 1-1.44-3.47 4.88 4.88 0 0 1 4.92-4.9c.65 0 1.26.14 1.85.4a5.14 5.14 0 0 1 2.6 2.6c.27.6.4 1.23.4 1.9v4.25a.6.6 0 0 1-.18.45.6.6 0 0 1-.44.18.6.6 0 0 1-.45-.18.6.6 0 0 1-.18-.45V45.9Zm0-3.03a3.56 3.56 0 0 0-1.06-2.57 3.63 3.63 0 1 0-3.99 5.9 3.53 3.53 0 0 0 2.78 0 3.64 3.64 0 0 0 1.94-1.89c.2-.43.3-.91.33-1.44Zm2.81-4.31a.6.6 0 0 1 .18-.44.6.6 0 0 1 .45-.19.6.6 0 0 1 .44.19.6.6 0 0 1 .19.44v.99c.43-.47.94-.86 1.55-1.16.6-.3 1.27-.46 1.98-.46.22 0 .4.06.52.19.13.12.2.26.2.44 0 .17-.07.32-.2.44a.72.72 0 0 1-.52.18c-.48 0-.93.1-1.35.29-.42.18-.79.44-1.1.76-.32.32-.58.7-.77 1.11-.2.42-.3.85-.31 1.31v4.45a.6.6 0 0 1-.19.45.6.6 0 0 1-.44.18.6.6 0 0 1-.45-.18.6.6 0 0 1-.18-.45v-8.54Zm7.91 4.9a3.67 3.67 0 0 0 4.97 2.75c.44-.18.82-.44 1.16-.76a.6.6 0 0 1 .44-.18.6.6 0 0 1 .45.18.6.6 0 0 1 .18.44.6.6 0 0 1-.18.45c-.45.5-.95.85-1.5 1.06a5.52 5.52 0 0 1-3.83-.05 4.9 4.9 0 0 1-2.6-2.54 4.82 4.82 0 0 1-.38-1.94 4.76 4.76 0 0 1 2.96-4.46 4.55 4.55 0 0 1 3.78-.05 5 5 0 0 1 2.62 2.59c.27.58.4 1.21.4 1.88 0 .2-.06.36-.2.46a.67.67 0 0 1-.42.17h-7.85Zm7.16-1.25a3.62 3.62 0 0 0-2.32-2.73 3.46 3.46 0 0 0-2.52 0 3.42 3.42 0 0 0-1.86 1.56c-.21.36-.36.75-.44 1.17h7.14ZM19.72 61.5h22.05V50.92c-3.38.86-7.7 1.42-9.84-.52-1.7-1.54-.8-4.13-1.59-6.16-.6-1.57-4.16-2.07-.94-4.38-3.5-3.33.86-3.59.48-5.21-.5-2.13-6.2-3.31-3.96-5.74l6.51-6.54c.37-.46.65-.81 1.1-1.18 1.82 1.5 6.28 1.45 8.64.55-2.93-.49-5.37-.57-7.54-2.05-1.34-.91-3.57-3.38-3.55-5.91.94 1.12 2.5 3.96 3.62 4.21.16-4.8-.63-9.36 3.1-13.9l2.7-3.07C39.9.8 39.3.51 38.65.24H19.72v19.64H0v21.97h19.72V61.5Z" fill="#fff"/><path fill-rule="evenodd" clip-rule="evenodd" d="M63.4 40.51c1.13-.87 2.58-3.25 3.46-4.82a25.24 25.24 0 0 0 2.33-6.14c1.3-5.25-.04-9.8-2.65-13.1a19.5 19.5 0 0 0-4.21-4.09c-5-3.55-9.45-6.18-13.02-12.36 1.23 5.3 6.19 10.4 10.35 13.1 5.49 3.53 8.93 8.1 7.68 15.67-.73 4.47-3.66 10.1-3.94 11.74Z" fill="#fff"/><path fill-rule="evenodd" clip-rule="evenodd" d="M59.24 37.44c.15-.47.66-1.38.9-1.93 2.15-4.9 2.32-11.54-1.94-14.98-3.91-3.15-5.86-4.36-8.68-8.27-.45-.61-1.92-2.95-2.08-3.57-.16 3.06 3.72 7.62 5.9 9.82 4.11 4.18 7.5 5.83 6.7 14.45-.14 1.66-.61 3.05-.8 4.48Z" fill="#fff"/><path d="M55.47 58.16a.43.43 0 0 1-.32-.13.42.42 0 0 1-.13-.31c0-.12.05-.23.13-.31a.43.43 0 0 1 .32-.13h2.58c.13 0 .24.04.31.13.08.1.12.2.12.32l-.01.06v.06a4.38 4.38 0 0 1-1.57 2.56 4.64 4.64 0 0 1-4.66.66 4.58 4.58 0 0 1-2.4-2.4 4.39 4.39 0 0 1-.36-1.76c0-.63.12-1.21.35-1.76a4.65 4.65 0 0 1 2.41-2.42 4.43 4.43 0 0 1 1.77-.35 4.53 4.53 0 0 1 3.68 1.88c.07.1.1.2.1.29 0 .1-.04.19-.11.28a.39.39 0 0 1-.32.13.56.56 0 0 1-.2-.04.46.46 0 0 1-.2-.16 4.4 4.4 0 0 0-1.44-1.15 3.53 3.53 0 0 0-2.93-.07 3.58 3.58 0 0 0-1.94 1.95 3.58 3.58 0 0 0 0 2.84 3.63 3.63 0 0 0 4.5 2.04 3.82 3.82 0 0 0 1.76-1.24c.23-.3.4-.62.54-.97h-1.98Zm4.86.25a2.59 2.59 0 0 0 4.32 1.4.43.43 0 0 1 .31-.12c.13 0 .23.05.32.13.08.09.13.2.13.31 0 .13-.05.23-.13.32-.32.35-.67.6-1.06.74a3.9 3.9 0 0 1-2.7-.03 3.44 3.44 0 0 1-1.83-1.8 3.4 3.4 0 0 1-.27-1.36 3.35 3.35 0 0 1 .99-2.4 3.77 3.77 0 0 1 2.47-1.04c.45-.01.88.08 1.3.26a3.52 3.52 0 0 1 2.12 3.15.4.4 0 0 1-.14.33c-.1.08-.2.11-.3.11h-5.53Zm5.05-.88a2.55 2.55 0 0 0-1.63-1.92 2.44 2.44 0 0 0-1.79 0c-.28.1-.53.25-.75.44-.23.18-.41.4-.56.66-.15.26-.25.53-.3.82h5.03Zm2.14-2.57c0-.12.04-.23.13-.31a.43.43 0 0 1 .3-.13c.13 0 .24.04.32.13.09.08.13.19.13.31v.19a2.64 2.64 0 0 1 1.67-.63 2.53 2.53 0 0 1 2.37 1.56c.13.32.2.65.2 1v3.9c0 .13-.05.23-.13.32a.43.43 0 0 1-.32.13.43.43 0 0 1-.3-.13.42.42 0 0 1-.14-.31v-3.91c0-.23-.04-.44-.13-.65a1.74 1.74 0 0 0-.9-.89 1.67 1.67 0 0 0-1.3 0c-.2.09-.37.2-.52.35-.15.14-.27.3-.36.5-.08.2-.13.4-.14.62v3.98c0 .12-.04.22-.13.3a.43.43 0 0 1-.31.14.43.43 0 0 1-.31-.13.42.42 0 0 1-.13-.31v-6.03Zm7.53-2.17c0-.13.04-.23.13-.31a.43.43 0 0 1 .3-.13c.13 0 .24.04.32.13.09.08.13.19.13.3v1.74h.95c.13 0 .23.04.32.13.09.08.13.19.13.31 0 .13-.04.23-.13.31a.43.43 0 0 1-.32.13h-.95V61a.43.43 0 0 1-.43.44.43.43 0 0 1-.44-.44V55.4h-.95a.43.43 0 0 1-.32-.13.42.42 0 0 1-.13-.3c0-.13.05-.24.13-.32a.43.43 0 0 1 .32-.13h.94V52.8Zm3.33 0c0-.13.05-.23.13-.31a.43.43 0 0 1 .32-.13c.12 0 .22.04.31.13.09.08.13.19.13.3v8.2c0 .13-.04.23-.13.32a.43.43 0 0 1-.31.13.43.43 0 0 1-.32-.13.42.42 0 0 1-.13-.31v-8.2Zm3.07 5.62a2.59 2.59 0 0 0 4.32 1.4.43.43 0 0 1 .32-.12c.12 0 .22.05.3.13.1.09.14.2.14.31 0 .13-.05.23-.13.32-.31.35-.67.6-1.06.74a3.9 3.9 0 0 1-2.7-.03 3.44 3.44 0 0 1-1.83-1.8 3.4 3.4 0 0 1-.27-1.36 3.35 3.35 0 0 1 .99-2.4A3.77 3.77 0 0 1 84 54.55c.45-.01.88.08 1.3.26a3.52 3.52 0 0 1 1.84 1.83c.2.4.29.85.29 1.32a.4.4 0 0 1-.15.33c-.1.08-.2.11-.3.11h-5.53Zm5.05-.88a2.55 2.55 0 0 0-1.63-1.92 2.44 2.44 0 0 0-1.79 0c-.28.1-.53.25-.75.44-.23.18-.41.4-.56.66-.15.26-.25.53-.3.82h5.03Zm17.43 2.6c-.32.35-.7.66-1.14.9-.44.26-.92.38-1.43.38a3.46 3.46 0 0 1-2.43-.96 3.32 3.32 0 0 1-1-2.45 3.45 3.45 0 0 1 2.08-3.18 3.48 3.48 0 0 1 2.68 0 3.63 3.63 0 0 1 1.84 1.85c.19.41.28.86.28 1.33v3c0 .12-.04.23-.13.31a.43.43 0 0 1-.31.13.43.43 0 0 1-.31-.13.42.42 0 0 1-.13-.3v-.88Zm0-2.13a2.51 2.51 0 0 0-.75-1.8A2.57 2.57 0 0 0 99 58.98a2.58 2.58 0 0 0 2.35 1.56 2.47 2.47 0 0 0 1.78-.73c.23-.23.41-.5.55-.8.14-.3.22-.65.24-1.02Zm1.98-3.04c0-.12.04-.23.13-.31a.43.43 0 0 1 .31-.13c.13 0 .23.04.32.13.08.09.12.19.12.31v.7c.3-.33.67-.6 1.1-.82.43-.21.9-.32 1.4-.32a.5.5 0 0 1 .36.13c.1.09.14.19.14.31 0 .13-.05.23-.14.32a.5.5 0 0 1-.36.12c-.34 0-.66.07-.96.2-.3.13-.55.31-.77.54-.23.23-.4.49-.55.78-.13.3-.2.6-.22.93v3.14c0 .12-.04.22-.13.31a.43.43 0 0 1-.3.13.43.43 0 0 1-.32-.13.43.43 0 0 1-.13-.31v-6.03Zm5.58 3.45a2.57 2.57 0 0 0 4.32 1.4.43.43 0 0 1 .31-.12c.12 0 .23.05.31.13.09.09.13.2.13.31 0 .13-.04.23-.13.32-.31.35-.66.6-1.06.74a3.89 3.89 0 0 1-2.7-.03 3.44 3.44 0 0 1-1.83-1.8 3.39 3.39 0 0 1-.27-1.36 3.35 3.35 0 0 1 1-2.4 3.78 3.78 0 0 1 2.47-1.04c.44-.01.88.08 1.29.26a3.52 3.52 0 0 1 1.84 1.83c.2.4.29.85.29 1.32 0 .15-.05.26-.14.33-.1.08-.2.11-.3.11h-5.53Zm5.04-.88a2.56 2.56 0 0 0-1.63-1.92 2.44 2.44 0 0 0-1.78 0c-.28.1-.53.25-.76.44a2.66 2.66 0 0 0-.86 1.48h5.03Zm11.83-2.98c.45 0 .89.1 1.3.28a3.61 3.61 0 0 1 1.84 1.84 3.26 3.26 0 0 1 0 2.65 3.56 3.56 0 0 1-1.82 1.82 3.46 3.46 0 0 1-3.78-.7 3.33 3.33 0 0 1-1-2.44 3.35 3.35 0 0 1 .98-2.4 3.77 3.77 0 0 1 2.47-1.04v-.01Zm-.03.9a2.48 2.48 0 0 0-1.8.74 2.55 2.55 0 1 0 3.62 3.61 2.57 2.57 0 0 0 .75-1.8 2.51 2.51 0 0 0-.75-1.8 2.56 2.56 0 0 0-1.82-.75Zm4.5-.49c0-.12.05-.23.13-.31a.43.43 0 0 1 .32-.13c.12 0 .22.04.31.13s.13.19.13.31v.7c.3-.33.67-.6 1.1-.82.43-.21.9-.32 1.4-.32a.5.5 0 0 1 .36.13c.09.09.13.19.13.31 0 .13-.04.23-.13.32a.5.5 0 0 1-.37.12c-.34 0-.66.07-.95.2-.3.13-.55.31-.78.54-.22.23-.4.49-.54.78-.14.3-.21.6-.22.93v3.14c0 .12-.04.22-.13.31a.43.43 0 0 1-.31.13.43.43 0 0 1-.32-.13.43.43 0 0 1-.13-.31v-6.03Zm16.75-.41c.45 0 .89.1 1.3.28a3.62 3.62 0 0 1 1.84 1.84 3.24 3.24 0 0 1 0 2.65 3.56 3.56 0 0 1-1.82 1.82 3.47 3.47 0 0 1-3.78-.7 3.32 3.32 0 0 1-1-2.44 3.35 3.35 0 0 1 .98-2.4 3.77 3.77 0 0 1 2.47-1.04v-.01Zm-.03.9a2.48 2.48 0 0 0-1.8.74 2.55 2.55 0 1 0 3.62 3.61 2.57 2.57 0 0 0 .75-1.8 2.51 2.51 0 0 0-.75-1.8 2.56 2.56 0 0 0-1.82-.75Zm4.68-.47c0-.13.04-.23.13-.32a.43.43 0 0 1 .3-.12c.13 0 .24.04.32.12.09.09.13.2.13.32v3.89a1.74 1.74 0 0 0 .5 1.18 1.66 1.66 0 0 0 1.18.48 1.62 1.62 0 0 0 1.17-.47 1.67 1.67 0 0 0 .5-1.12v-3.96c0-.13.04-.23.13-.32a.43.43 0 0 1 .31-.12.42.42 0 0 1 .44.44v6c0 .13-.04.23-.12.32a.43.43 0 0 1-.31.13.43.43 0 0 1-.32-.13.42.42 0 0 1-.13-.31v-.19a2.64 2.64 0 0 1-1.67.63 2.54 2.54 0 0 1-2.36-1.57c-.14-.3-.2-.64-.2-.99v-3.9Zm-60-.42c.38 0 .72.06 1.03.17.3.12.56.25.78.4.22.14.39.29.5.44.13.14.18.25.18.33 0 .1-.04.2-.12.27a.42.42 0 0 1-.29.11.43.43 0 0 1-.31-.12c-.24-.21-.51-.38-.82-.5a2.49 2.49 0 0 0-2.79.55 2.55 2.55 0 0 0 3.6 3.63.45.45 0 0 1 .62 0 .4.4 0 0 1 .14.3c0 .07-.05.18-.16.33-.11.14-.27.29-.5.43a3.46 3.46 0 0 1-1.89.53 3.47 3.47 0 0 1-2.42-.97 3.31 3.31 0 0 1-1.02-2.44 3.35 3.35 0 0 1 1-2.41 3.77 3.77 0 0 1 2.47-1.04Zm27.4-.34a1.86 1.86 0 0 1 1.88-1.87c.12 0 .23.04.31.13.09.08.13.19.13.3 0 .13-.04.24-.13.32a.43.43 0 0 1-.31.13c-.28 0-.51.1-.7.29-.2.2-.3.43-.3.7v.3h.97c.12 0 .23.04.31.13.09.08.13.19.13.31 0 .13-.04.23-.13.31a.43.43 0 0 1-.31.13h-.97V61c0 .12-.04.22-.13.3a.43.43 0 0 1-.31.14.43.43 0 0 1-.32-.13.43.43 0 0 1-.13-.31V55.4h-.58a.43.43 0 0 1-.31-.13.43.43 0 0 1-.13-.3c0-.13.04-.24.13-.32a.43.43 0 0 1 .31-.13h.58v-.3Zm22.6.57a.36.36 0 0 1 .16-.18.45.45 0 0 1 .24-.07c.13 0 .24.04.32.13.08.1.12.19.12.3 0 .05-.01.1-.04.16l-3.25 8.58c-.08.2-.21.29-.4.29a.4.4 0 0 1-.32-.14.45.45 0 0 1-.1-.46l.86-2.33-1.01-2.76a298.88 298.88 0 0 0-1.16-3.15.43.43 0 0 1-.04-.2c0-.12.03-.22.1-.3.08-.08.18-.12.31-.12.1 0 .2.02.27.07.08.04.13.1.16.18l1.85 5.05 1.93-5.05Z" fill="#fff"/></svg>