<svg width="25" height="26" fill="none" xmlns="http://www.w3.org/2000/svg"><path d="M7.04 0h10.95l.14.04c1.45.11 2.84.66 3.98 1.57a7.3 7.3 0 0 1 2.6 3.95c.14.52.2 1.05.29 1.57v6.73l-.04.14a7.25 7.25 0 0 1-1.2 3.53 7.42 7.42 0 0 1-4.16 3.12c-.88.24-1.8.35-2.7.3-2.09-.02-4.14.56-5.9 1.68a13.8 13.8 0 0 0-2.61 2.22.73.73 0 0 1-.87.24.75.75 0 0 1-.44-.78v-3.35c-.33-.05-.63-.07-.93-.13a7.36 7.36 0 0 1-4.79-3.1A7.48 7.48 0 0 1 0 13.3V7.76A7.62 7.62 0 0 1 5.48.29C5.98.16 6.52.1 7.04 0Zm5.44 12.14a1.66 1.66 0 0 0 1.68-1.64 1.7 1.7 0 0 0-1.64-1.7 1.67 1.67 0 0 0-1.68 1.66 1.67 1.67 0 0 0 1 1.55c.2.09.42.13.64.13Zm-5.4 0a1.64 1.64 0 0 0 1.54-1.02A1.67 1.67 0 0 0 7.09 8.8a1.68 1.68 0 0 0-1.18 2.85c.31.32.73.5 1.17.5Zm10.83 0a1.66 1.66 0 0 0 1.67-1.66 1.7 1.7 0 0 0-1.66-1.68 1.67 1.67 0 0 0-1.66 1.67 1.67 1.67 0 0 0 1.01 1.55c.2.08.42.12.64.12Z" fill="#fff"/></svg>