<svg width="25" height="25" fill="none" xmlns="http://www.w3.org/2000/svg"><g clip-path="url(#a)" fill="#fff"><path d="M0 12.98a.68.68 0 0 0 .04-.11c.14-.7.54-1.22 1.15-1.58l3.3-1.9c.33-.18.53-.13.72.2a3983.65 3983.65 0 0 1 2.7 4.62.4.4 0 0 0 .52.09c.18-.12.25-.28.18-.48a1.53 1.53 0 0 0-.14-.26L5.94 9.19c-.23-.4-.2-.54.16-.8a25.77 25.77 0 0 0 6.94-7.22c.77-1.2 2.34-1.15 3.05.08C18 4.5 19.86 7.77 21.78 11c.7 1.2-.03 2.71-1.52 2.75a24.87 24.87 0 0 0-12.03 3.6c-.87.54-1.77 1.04-2.66 1.54a2.28 2.28 0 0 1-3.2-.92C1.69 16.82 1 15.68.36 14.5c-.16-.28-.24-.6-.36-.9v-.63ZM9.42 24.06c-.47-.06-.87-.23-1.1-.63-.7-1.16-1.37-2.33-2.05-3.5-.13-.23-.06-.44.17-.58l2.5-1.43c.25-.14.46-.08.61.18.66 1.13 1.33 2.26 1.97 3.4.36.64.15 1.4-.47 1.78-.32.21-.65.4-1 .57-.19.1-.41.14-.63.2ZM21.17 6.4c-.01.1-.01.25-.04.4a.4.4 0 0 1-.33.34.39.39 0 0 1-.44-.2l-1.4-2.4a.38.38 0 0 1 .05-.48c.15-.16.32-.17.52-.1a2.62 2.62 0 0 1 1.64 2.45ZM22.84 4.37c-.12-.1-.26-.2-.34-.33a.32.32 0 0 1 .13-.45c.39-.24.78-.46 1.18-.68.2-.1.37-.02.5.15.11.17.12.4-.05.5-.42.28-.87.5-1.3.76a.2.2 0 0 1-.08 0l-.04.05ZM24.48 8.37c-.3-.08-.68-.17-1.05-.3-.2-.06-.28-.28-.23-.48a.4.4 0 0 1 .45-.29c.37.08.73.18 1.08.3a.4.4 0 0 1 .26.46c-.05.2-.22.33-.51.31ZM20.6.52c-.08.3-.17.7-.3 1.06-.07.19-.25.26-.45.21-.2-.05-.35-.2-.31-.4.07-.4.18-.79.3-1.17.07-.2.27-.26.48-.2.2.06.3.2.29.5Z"/></g><defs><clipPath id="a"><path fill="#fff" d="M0 0h25v24.06H0z"/></clipPath></defs></svg>