<svg width="25" height="30" fill="none" xmlns="http://www.w3.org/2000/svg"><g clip-path="url(#a)" fill="#fff"><path d="M11.68 29.96c-.5-.07-1-.13-1.5-.23a12.38 12.38 0 0 1-8.03-5.31 12.18 12.18 0 0 1-2.03-5.33 12.46 12.46 0 0 1 18.44-12.6l.41.22 1.11-1.12-.92-.89 1.73-1.76 3.68 3.68-1.7 1.71-.92-.97-.96.99c.1.04.2.09.28.16a11.94 11.94 0 0 1 3.4 6.03c.52 2.18.42 4.47-.3 6.6a12.76 12.76 0 0 1-4.44 6.34 12.15 12.15 0 0 1-6.39 2.43l-.28.05h-1.58Zm.83-21.33a8.68 8.68 0 0 0-8.73 9.23 8.66 8.66 0 0 0 9.58 8.2 8.59 8.59 0 0 0 7.86-8.7h-8.7V8.63ZM8.78 0h7.46v2.48h-2.46v1.2h-2.5V2.5h-2.5V0Z"/></g><defs><clipPath id="a"><path fill="#fff" d="M0 0h25v29.96H0z"/></clipPath></defs></svg>