<svg width="25" height="25" fill="none" xmlns="http://www.w3.org/2000/svg"><g clip-path="url(#a)" fill="#fff"><path d="M0 17.8c.13-.32.38-.42.71-.42h23.56c.55 0 .73.19.73.74 0 .25-.01.5-.05.73a1.6 1.6 0 0 1-1.5 1.25H13.04l.01 1.63c0 .06.11.15.19.19a1.63 1.63 0 1 1-2.28.9c.14-.38.42-.7.78-.88.17-.09.23-.18.22-.37V20.1h-.34c-3.2 0-6.4-.01-9.6.01-.95.01-1.68-.25-2.02-1.34v-.98Zm11.96 5.55a.54.54 0 0 0 .91.4c.1-.1.16-.23.17-.37a.54.54 0 0 0-.55-.55.52.52 0 0 0-.53.52ZM0 1.34c.05-.15.1-.3.18-.45C.48.34.93.04 1.56 0H23.21c.89 0 1.53.42 1.71 1.18.08.34.08.7.06 1.06 0 .28-.23.45-.5.47H.71c-.34 0-.58-.1-.72-.4v-.97ZM24.44 16.3H.57V3.8h23.87V16.3ZM16.87 5.97v8.13h3.22V5.98h-3.22Zm-2.76 8.14V8.17h-3.22v5.95h3.22Zm-5.98 0v-3.23H4.9v3.22h3.23Z"/></g><defs><clipPath id="a"><path fill="#fff" d="M0 0h25v25H0z"/></clipPath></defs></svg>