<svg width="25" height="25" fill="none" xmlns="http://www.w3.org/2000/svg"><g clip-path="url(#a)" fill="#fff"><path d="M25 12.7c-.2.42-.53.58-.98.54-.18-.02-.36 0-.54 0l-.19 1.39c.26.07.53.13.79.22a.73.73 0 0 1 .33 1.18c-.21.24-.48.28-.78.21l-.71-.19-.54 1.3.57.34c.44.26.59.68.37 1.06-.21.38-.65.47-1.1.21l-.58-.33-.88 1.13.54.5c.31.33.33.78.04 1.08-.29.3-.75.28-1.09-.05-.17-.16-.32-.34-.5-.52l-1.13.87.37.63c.22.4.12.84-.24 1.05-.37.22-.8.09-1.03-.32-.13-.2-.25-.42-.37-.63l-1.3.54.17.67c.13.49-.06.87-.48.99-.43.12-.8-.12-.93-.6l-.18-.68-1.4.19v.73c0 .46-.31.8-.74.79-.43 0-.72-.33-.72-.8v-.72l-1.4-.19-.21.77c-.14.44-.58.65-.98.48-.35-.15-.52-.5-.42-.91l.2-.72-1.3-.54-.38.63c-.24.4-.66.54-1.03.32-.36-.21-.46-.65-.24-1.05l.37-.63-1.14-.88-.49.53c-.33.33-.79.34-1.09.04-.3-.3-.27-.75.06-1.08l.5-.5-.86-1.12-.6.34c-.43.24-.87.15-1.08-.22-.22-.38-.08-.8.35-1.05l.6-.34-.55-1.3-.7.18c-.46.11-.84-.1-.95-.53-.1-.39.13-.75.56-.88l.72-.2-.18-1.4H.8c-.47 0-.8-.31-.8-.74.01-.42.34-.72.8-.72h3.59c.49 0 .78.3.8.8a7.3 7.3 0 0 0 5.5 7.03l.35.08V16.91c0-.2-.04-.28-.23-.36a4.38 4.38 0 0 1-2.7-3.98c0-.48.3-.8.79-.8h1.34c.49 0 .78.29.8.77a1.46 1.46 0 0 0 2.93 0c.02-.49.31-.77.8-.77h1.34c.49 0 .8.32.79.8a4.39 4.39 0 0 1-2.71 3.98c-.17.07-.23.15-.23.33v2.8a7.2 7.2 0 0 0 3.81-2.1 7.21 7.21 0 0 0 2.05-5c.01-.52.3-.81.83-.81 1.12 0 2.24.01 3.37-.01.45 0 .79.12.98.54v.4ZM25 9.77c-.2.42-.53.54-.98.54H9.33V6.74c0-.56-.3-.84-.85-.84h-3.2c-.55 0-.83.29-.84.84v3.55H.84c-.5 0-.83-.29-.84-.72 0-.44.33-.74.82-.74h.7v-.27L1.5 3.83c0-.38.15-.64.49-.82L6.16.7c.67-.37 1.2-.05 1.21.71v1.04l.25-.12L10.56.69c.66-.37 1.2-.04 1.2.73v1.04l.26-.13L14.96.69c.65-.36 1.2-.04 1.2.7V8.84h1.42l.29-2.6.56-5.12.03-.22c0-.42.17-.73.58-.9h2.54c.4.17.57.48.59.9 0 .22.04.43.06.65a8100.6 8100.6 0 0 0 .82 7.3c.33 0 .65.01.97-.01.45-.03.79.12.98.54v.4ZM12 5.9h-.5a.73.73 0 0 0-.52 1.23c.13.14.3.22.5.23h1.04a.73.73 0 0 0 0-1.46H12Z"/><path d="M5.92 10.29v-2.9h1.92v2.9H5.92Z"/></g><defs><clipPath id="a"><path fill="#fff" d="M0 0h25v25H0z"/></clipPath></defs></svg>